<?xml version="1.0" encoding="UTF-8" standalone="no"?>
<!DOCTYPE svg PUBLIC "-//W3C//DTD SVG 1.1//EN" "http://www.w3.org/Graphics/SVG/1.1/DTD/svg11.dtd">
<svg width="100%" height="100%" viewBox="0 0 1038 980" version="1.1" xmlns="http://www.w3.org/2000/svg" xmlns:xlink="http://www.w3.org/1999/xlink" xml:space="preserve" xmlns:serif="http://www.serif.com/" style="fill-rule:evenodd;clip-rule:evenodd;stroke-linejoin:round;stroke-miterlimit:2;">
    <g transform="matrix(4.16667,0,0,4.16667,518.746,717.474)">
        <path d="M0,62.882L-21.107,58.311L-15.031,34.038C-69.742,29.351 -109.487,16.738 -109.487,16.738C-117.505,11.231 -124.499,0 -124.499,0C-124.499,0 -110.846,3.369 -100.646,3.776C-79.44,4.622 -46.178,1.828 -22.186,4.422C-22.208,4.537 -11.081,4.594 0,4.594C11.081,4.594 22.208,4.537 22.186,4.422C46.178,1.828 79.44,4.622 100.646,3.776C110.846,3.369 124.499,0 124.499,0C124.499,0 117.505,11.231 109.487,16.738C109.487,16.738 69.742,29.351 15.031,34.038L21.107,58.311L0,62.882Z" style="fill:rgb(0,153,68);fill-rule:nonzero;"/>
    </g>
    <g transform="matrix(4.16667,0,0,4.16667,518.746,836.486)">
        <path d="M0,-53.54C15.864,-53.501 32.15,-53.538 32.06,-53.764C56.727,-57.876 83.991,-56.099 97.348,-56.313C105.002,-56.435 114.263,-58.508 114.263,-58.508C112.642,-55.428 106.644,-47.647 98.863,-42.135C93.184,-38.727 86.049,-35.71 80.058,-33.543C73.371,-31.124 46.146,-24.935 34.83,-23.492C27.791,-22.595 20.775,-21.698 14.68,-21.236L20.309,1.53L0,4.968L-20.309,1.53L-14.68,-21.236C-20.774,-21.698 -27.791,-22.595 -34.83,-23.492C-46.147,-24.935 -73.371,-31.124 -80.058,-33.543C-86.049,-35.71 -93.184,-38.727 -98.863,-42.135C-106.644,-47.647 -112.642,-55.428 -114.263,-58.508C-114.263,-58.508 -105.002,-56.435 -97.348,-56.313C-83.991,-56.099 -56.727,-57.876 -32.06,-53.764C-32.15,-53.538 -15.864,-53.501 0,-53.54" style="fill:rgb(21,174,104);fill-rule:nonzero;"/>
    </g>
    <g transform="matrix(4.16667,0,0,4.16667,519.493,466.403)">
        <path d="M0,65.596L-0.179,65.568L-0.359,65.596L-19.508,63.324L-14.326,41.326C-15.713,41.986 -24.731,41.466 -31.353,40.311C-44.076,38.093 -56.449,34.95 -68.074,29.504C-74.035,26.711 -81.042,22.371 -86.878,17.346C-94.659,11.024 -99.776,3.562 -101.63,0C-101.716,0.155 -90.192,1.86 -85.095,2.107C-75.457,2.576 -56.888,3.242 -31.651,5.353C-31.54,5.513 -15.735,5.563 -0.179,5.547C15.376,5.563 31.182,5.513 31.292,5.353C56.529,3.242 75.099,2.576 84.736,2.107C89.833,1.86 101.357,0.155 101.271,0C99.418,3.562 94.301,11.024 86.52,17.346C80.684,22.371 73.676,26.711 67.715,29.504C56.091,34.95 43.717,38.093 30.994,40.311C24.372,41.466 15.354,41.986 13.967,41.326L19.149,63.324L0,65.596Z" style="fill:rgb(136,200,151);fill-rule:nonzero;"/>
    </g>
    <g transform="matrix(4.16667,0,0,4.16667,511.511,61.2567)">
        <path d="M0,22.56C0,22.56 -0.029,22.656 4.085,21.653C16.977,18.508 32.107,9.777 40.456,0.78C41.267,-0.094 42.32,-1.49 42.32,-1.49C43.212,-3.03 43.86,-0.436 40.861,3.13C33.3,12.122 16.565,22.293 0.267,25.232C-1.717,25.59 -2.001,22.809 0,22.56" style="fill:rgb(0,153,68);fill-rule:nonzero;"/>
    </g>
    <g transform="matrix(4.11183,0.673745,0.673745,-4.11183,565.283,136.216)">
        <path d="M1.45,-0.029C1.45,-0.029 -2.062,3.692 -2.096,8.595C-2.132,13.497 1.45,17.993 1.45,17.993C1.45,17.993 3.559,13.92 4.615,8.625C5.418,4.598 1.45,-0.029 1.45,-0.029" style="fill:rgb(0,153,68);"/>
    </g>
    <g transform="matrix(4.12862,0.561818,0.561818,-4.12862,610.429,113.719)">
        <path d="M1.223,-0.023C1.223,-0.023 -2.094,3.803 -2.127,8.756C-2.16,13.71 1.223,18.184 1.223,18.184C1.223,18.184 3.216,14.03 4.213,8.659C4.973,4.575 1.223,-0.023 1.223,-0.023" style="fill:rgb(0,153,68);"/>
    </g>
    <g transform="matrix(-1.44354,3.90862,3.90862,1.44354,631.472,131.964)">
        <path d="M8.248,-11.612C8.248,-11.612 5.26,-8.687 5.582,-3.821C5.903,1.044 8.248,5.804 8.248,5.804C8.248,5.804 10.835,3.477 11.714,-3.112C12.393,-8.213 8.248,-11.612 8.248,-11.612" style="fill:rgb(0,153,68);"/>
    </g>
    <g transform="matrix(4.1316,0.539403,0.539403,-4.1316,649.524,87.5892)">
        <path d="M1.128,-0.021C1.128,-0.021 -1.951,3.685 -1.982,8.44C-2.013,13.194 1.128,17.453 1.128,17.453C1.128,17.453 2.977,13.445 3.902,8.282C4.606,4.355 1.128,-0.021 1.128,-0.021" style="fill:rgb(0,153,68);"/>
    </g>
    <g transform="matrix(3.73895,1.83885,1.83885,-3.73895,674.442,53.2662)">
        <path d="M3.573,-0.526C3.573,-0.526 6.85,1.627 6.303,6.778C5.81,11.422 3.573,16.003 3.573,16.003C3.573,16.003 1.133,13.349 0.654,7.613C0.26,2.903 3.573,-0.526 3.573,-0.526" style="fill:rgb(0,153,68);"/>
    </g>
    <g transform="matrix(-1.12355,4.01232,4.01232,1.12355,672.798,101.058)">
        <path d="M8.959,-10.77C8.959,-10.77 5.968,-7.256 6.036,-2.387C6.105,2.482 8.959,7.016 8.959,7.016C8.959,7.016 11.237,3.003 12.124,-2.291C12.798,-6.317 8.959,-10.77 8.959,-10.77" style="fill:rgb(0,153,68);"/>
    </g>
    <g transform="matrix(0.454569,4.1418,4.1418,-0.454569,691.705,61.9665)">
        <path d="M7.233,-8.388C7.233,-8.388 4.451,-4.51 5.155,0.057C5.832,4.462 7.233,8.303 7.233,8.303C7.233,8.303 10.377,4.85 10.869,-0.168C11.243,-3.983 7.233,-8.388 7.233,-8.388" style="fill:rgb(0,153,68);"/>
    </g>
    <g transform="matrix(4.16667,0,0,4.16667,518.746,327.924)">
        <path d="M0,67.467L-18.274,66.315L-13.538,46.558C-15.371,47.825 -20.883,47.663 -26.232,46.852C-35.694,45.419 -44.713,42.475 -52.656,38.422C-62.476,33.412 -69.928,27.228 -77.297,18.807C-82.97,12.323 -88.32,3.083 -89.287,0C-88.102,0.447 -83.74,1.515 -79.347,2.29C-73.835,3.263 -51.029,8.106 -21.201,9.402L21.201,9.402C51.029,8.106 73.835,3.263 79.347,2.29C83.74,1.515 88.102,0.447 89.287,0C88.32,3.083 82.97,12.323 77.297,18.807C69.928,27.228 62.476,33.412 52.656,38.422C44.713,42.475 35.694,45.419 26.232,46.852C20.883,47.663 15.371,47.825 13.538,46.558L18.274,66.315L0,67.467Z" style="fill:rgb(202,229,205);fill-rule:nonzero;"/>
    </g>
    <g transform="matrix(4.16667,0,0,4.16667,449.817,118.485)">
        <path d="M0,85.557L4.29,68.035C4.29,68.035 -1.263,70.367 -7.261,68.422C-14.967,65.922 -17.168,60.1 -17.168,60.1C-17.168,60.1 -25.594,61.098 -31.839,56.057C-37.462,51.519 -38.07,43.574 -38.07,43.574C-38.07,43.574 -47.764,41.626 -54.334,33.415C-60.167,26.124 -60.433,18.492 -60.426,16.167C-47.789,20.437 -22.824,26.273 6.842,26.111C6.842,26.111 10.137,9.104 10.427,7.658C10.816,5.708 11.704,0 16.405,0L16.681,0C21.382,0 22.27,5.708 22.66,7.658C22.949,9.104 26.244,26.111 26.244,26.111C55.91,26.273 80.875,20.437 93.512,16.167C93.519,18.492 93.253,26.124 87.42,33.415C80.851,41.626 71.156,43.574 71.156,43.574C71.156,43.574 70.548,51.519 64.925,56.057C58.68,61.098 50.254,60.1 50.254,60.1C50.254,60.1 48.053,65.922 40.348,68.422C34.35,70.367 28.796,68.035 28.796,68.035L33.086,85.557L0,85.557Z" style="fill:white;fill-rule:nonzero;"/>
    </g>
    <g transform="matrix(4.16667,0,0,4.16667,456.698,123.885)">
        <path d="M0,82.965L29.783,82.965L25.273,64.548L27.647,65.544C27.669,65.553 30.241,66.604 33.646,66.604C35.276,66.604 36.841,66.365 38.297,65.893C45.266,63.633 47.309,58.556 47.393,58.34L47.755,57.408L48.753,57.517C48.76,57.518 49.385,57.589 50.395,57.589C53.126,57.589 58.325,57.09 62.459,53.753C67.588,49.614 68.206,42.253 68.212,42.179L68.286,41.203L69.247,41.007C69.34,40.989 78.577,39.033 84.756,31.309C89.047,25.945 90.241,20.346 90.502,16.68C81.647,19.507 57.532,26.114 25.803,26.114L23.522,26.105L23.32,25.062C23.32,25.062 20.026,8.062 19.737,6.616L19.68,6.323C19.071,3.196 18.043,0 15.029,0L14.754,0C11.741,0 10.713,3.195 10.104,6.32L10.045,6.617C9.756,8.062 6.463,25.062 6.463,25.062L6.261,26.105L3.98,26.114C-27.748,26.114 -51.863,19.507 -60.719,16.68C-60.458,20.347 -59.264,25.946 -54.973,31.309C-48.794,39.033 -39.557,40.989 -39.464,41.007L-38.508,41.202L-38.429,42.177C-38.423,42.251 -37.78,49.633 -32.677,53.753C-28.543,57.09 -23.343,57.589 -20.611,57.589C-19.602,57.589 -18.976,57.518 -18.97,57.517L-17.966,57.402L-17.607,58.346C-17.525,58.556 -15.482,63.633 -8.514,65.893C-7.058,66.365 -5.493,66.604 -3.862,66.604C-0.459,66.604 2.114,65.553 2.14,65.543L4.504,64.563L0,82.965ZM33.086,85.557L-3.303,85.557L0.839,68.642C-0.381,68.93 -2.01,69.196 -3.862,69.196C-5.765,69.196 -7.599,68.914 -9.313,68.359C-15.751,66.271 -18.625,62.019 -19.611,60.159C-19.892,60.172 -20.229,60.181 -20.611,60.181C-23.685,60.181 -29.551,59.608 -34.306,55.77C-39.173,51.84 -40.541,45.681 -40.897,43.325C-43.557,42.61 -51.334,40.007 -56.998,32.928C-62.57,25.964 -63.384,18.623 -63.374,14.867L-63.369,13.067L-61.663,13.643C-54.805,15.961 -29.802,23.523 3.98,23.523L4.121,23.522C4.843,19.797 7.258,7.337 7.504,6.108L7.56,5.824C8.008,3.523 9.199,-2.592 14.754,-2.592L15.029,-2.592C20.586,-2.592 21.775,3.525 22.224,5.828L22.278,6.108C22.524,7.337 24.94,19.797 25.662,23.522L25.803,23.523C59.584,23.523 84.587,15.961 91.445,13.643L93.151,13.067L93.156,14.867C93.167,18.622 92.354,25.961 86.779,32.928C81.117,40.007 73.34,42.61 70.681,43.325C70.324,45.681 68.955,51.84 64.088,55.77C58.742,60.086 51.927,60.269 49.395,60.159C48.408,62.019 45.534,66.271 39.096,68.359C37.382,68.914 35.549,69.196 33.646,69.196C31.792,69.196 30.164,68.93 28.944,68.642L33.086,85.557Z" style="fill:rgb(0,153,68);fill-rule:nonzero;"/>
    </g>
</svg>
